<svg width="1280" height="242" viewBox="0 0 1280 242" fill="none" xmlns="http://www.w3.org/2000/svg">
<path d="M0 0L30.5778 10.3784C61.1556 20.8486 122.311 41.6053 183.182 54.4634C244.196 67.3216 304.782 72.2811 365.796 74.6691C426.667 77.1489 487.822 77.1489 548.693 63.0968C609.707 48.9528 670.293 20.8486 731.307 15.889C792.178 11.0213 853.333 29.3901 914.204 42.4319C975.218 55.3819 1035.8 63.0968 1096.82 55.8411C1157.69 48.6773 1218.84 26.6347 1249.42 15.6135L1280 4.5922V221.344H1249.42C1218.84 221.344 1157.69 221.344 1096.82 221.344C1035.8 221.344 975.218 221.344 914.204 221.344C853.333 221.344 792.178 221.344 731.307 221.344C670.293 221.344 609.707 221.344 548.693 221.344C487.822 221.344 426.667 221.344 365.796 221.344C304.782 221.344 244.196 221.344 183.182 221.344C122.311 221.344 61.1556 221.344 30.5778 221.344H0V0Z" fill="#2D90BA"/>
<path d="M0 79.5598L30.5778 74.2199C61.1556 68.88 122.311 58.2001 183.182 58.5205C244.196 58.9477 304.782 70.2683 365.796 67.0644C426.667 63.8605 487.822 46.132 548.693 42.7144C609.707 39.2969 670.293 50.4039 731.307 60.3361C792.178 70.2684 853.333 79.2394 914.204 83.6181C975.218 88.1037 1035.8 88.1037 1096.82 76.3559C1157.69 64.6081 1218.84 41.1124 1249.42 29.3646L1280 17.6168V221.601H1249.42C1218.84 221.601 1157.69 221.601 1096.82 221.601C1035.8 221.601 975.218 221.601 914.204 221.601C853.333 221.601 792.178 221.601 731.307 221.601C670.293 221.601 609.707 221.601 548.693 221.601C487.822 221.601 426.667 221.601 365.796 221.601C304.782 221.601 244.196 221.601 183.182 221.601C122.311 221.601 61.1556 221.601 30.5778 221.601H0V79.5598Z" fill="#2681A7"/>
<path d="M0 115.023L30.5778 114.831C61.1556 114.735 122.311 114.351 183.182 112.143C244.196 109.934 304.782 105.709 365.796 103.213C426.667 100.621 487.822 99.6603 548.693 104.461C609.707 109.262 670.293 119.824 731.307 123.857C792.178 127.793 853.333 125.297 914.204 118.384C975.218 111.47 1035.8 100.332 1096.82 100.14C1157.69 99.9484 1218.84 110.894 1249.42 116.271L1280 121.744V221.602H1249.42C1218.84 221.602 1157.69 221.602 1096.82 221.602C1035.8 221.602 975.218 221.602 914.204 221.602C853.333 221.602 792.178 221.602 731.307 221.602C670.293 221.602 609.707 221.602 548.693 221.602C487.822 221.602 426.667 221.602 365.796 221.602C304.782 221.602 244.196 221.602 183.182 221.602C122.311 221.602 61.1556 221.602 30.5778 221.602H0V115.023Z" fill="#207295"/>
<path d="M0 142.17L31.1033 142.394C62.2067 142.507 124.413 142.955 186.331 147.218C248.393 151.48 310.021 159.781 372.083 162.36C434 164.94 496.207 162.024 558.124 156.191C620.186 150.358 681.814 141.834 743.876 136.562C805.793 131.29 868 129.495 929.917 135.103C991.979 140.712 1053.61 153.723 1115.67 155.855C1177.59 157.874 1239.79 148.9 1270.9 144.413L1302 139.927V242H1270.9C1239.79 242 1177.59 242 1115.67 242C1053.61 242 991.979 242 929.917 242C868 242 805.793 242 743.876 242C681.814 242 620.186 242 558.124 242C496.207 242 434 242 372.083 242C310.021 242 248.393 242 186.331 242C124.413 242 62.2067 242 31.1033 242H0V142.17Z" fill="#1A6483"/>
<path d="M0 179.998L30.5778 181.385C61.1556 182.772 122.311 185.545 183.182 182.31C244.196 179.074 304.782 169.829 365.796 164.744C426.667 159.659 487.822 158.734 548.693 163.634C609.707 168.627 670.293 179.351 731.307 184.344C792.178 189.243 853.333 188.319 914.204 183.419C975.218 178.427 1035.8 169.551 1096.82 169.829C1157.69 170.106 1218.84 179.721 1249.42 184.436L1280 189.243V221.602H1249.42C1218.84 221.602 1157.69 221.602 1096.82 221.602C1035.8 221.602 975.218 221.602 914.204 221.602C853.333 221.602 792.178 221.602 731.307 221.602C670.293 221.602 609.707 221.602 548.693 221.602C487.822 221.602 426.667 221.602 365.796 221.602C304.782 221.602 244.196 221.602 183.182 221.602C122.311 221.602 61.1556 221.602 30.5778 221.602H0V179.998Z" fill="#0E394C"/>
</svg>
