<svg width="1280" height="369" viewBox="0 0 1280 369" fill="none" xmlns="http://www.w3.org/2000/svg">
<path d="M0 0L30.5778 17.2907C61.1556 34.7344 122.311 69.3157 183.182 90.7378C244.196 112.16 304.782 120.423 365.796 124.401C426.667 128.532 487.822 128.533 548.693 105.121C609.707 81.5569 670.293 34.7344 731.307 26.4716C792.178 18.3618 853.333 48.9648 914.204 70.6929C975.218 92.268 1035.8 105.121 1096.82 93.033C1157.69 81.0979 1218.84 44.3743 1249.42 26.0125L1280 7.65074V368.766H1249.42C1218.84 368.766 1157.69 368.766 1096.82 368.766C1035.8 368.766 975.218 368.766 914.204 368.766C853.333 368.766 792.178 368.766 731.307 368.766C670.293 368.766 609.707 368.766 548.693 368.766C487.822 368.766 426.667 368.766 365.796 368.766C304.782 368.766 244.196 368.766 183.182 368.766C122.311 368.766 61.1556 368.766 30.5778 368.766H0V0Z" fill="#2D90BA"/>
<path d="M0 165.256L30.5778 157.605C61.1556 149.955 122.311 134.653 183.182 135.112C244.196 135.724 304.782 151.944 365.796 147.353C426.667 142.763 487.822 117.362 548.693 112.466C609.707 107.569 670.293 123.483 731.307 137.713C792.178 151.944 853.333 164.797 914.204 171.071C975.218 177.497 1035.8 177.497 1096.82 160.666C1157.69 143.834 1218.84 110.171 1249.42 93.3391L1280 76.5074V368.766H1249.42C1218.84 368.766 1157.69 368.766 1096.82 368.766C1035.8 368.766 975.218 368.766 914.204 368.766C853.333 368.766 792.178 368.766 731.307 368.766C670.293 368.766 609.707 368.766 548.693 368.766C487.822 368.766 426.667 368.766 365.796 368.766C304.782 368.766 244.196 368.766 183.182 368.766C122.311 368.766 61.1556 368.766 30.5778 368.766H0V165.256Z" fill="#2681A7"/>
<path d="M0 198.919L30.5778 198.613C61.1556 198.46 122.311 197.848 183.182 194.329C244.196 190.809 304.782 184.077 365.796 180.098C426.667 175.967 487.822 174.437 548.693 182.088C609.707 189.738 670.293 206.57 731.307 212.997C792.178 219.27 853.333 215.292 914.204 204.275C975.218 193.258 1035.8 175.508 1096.82 175.202C1157.69 174.896 1218.84 192.34 1249.42 200.908L1280 209.63V368.766H1249.42C1218.84 368.766 1157.69 368.766 1096.82 368.766C1035.8 368.766 975.218 368.766 914.204 368.766C853.333 368.766 792.178 368.766 731.307 368.766C670.293 368.766 609.707 368.766 548.693 368.766C487.822 368.766 426.667 368.766 365.796 368.766C304.782 368.766 244.196 368.766 183.182 368.766C122.311 368.766 61.1556 368.766 30.5778 368.766H0V198.919Z" fill="#207295"/>
<path d="M0 232.582L30.5778 232.889C61.1556 233.042 122.311 233.654 183.182 239.468C244.196 245.283 304.782 256.606 365.796 260.125C426.667 263.645 487.822 259.666 548.693 251.709C609.707 243.753 670.293 232.123 731.307 224.932C792.178 217.74 853.333 215.292 914.204 222.943C975.218 230.593 1035.8 248.343 1096.82 251.25C1157.69 254.005 1218.84 241.763 1249.42 235.643L1280 229.522V368.766H1249.42C1218.84 368.766 1157.69 368.766 1096.82 368.766C1035.8 368.766 975.218 368.766 914.204 368.766C853.333 368.766 792.178 368.766 731.307 368.766C670.293 368.766 609.707 368.766 548.693 368.766C487.822 368.766 426.667 368.766 365.796 368.766C304.782 368.766 244.196 368.766 183.182 368.766C122.311 368.766 61.1556 368.766 30.5778 368.766H0V232.582Z" fill="#1A6483"/>
<path d="M0 299.909L30.5778 302.204C61.1556 304.5 122.311 309.09 183.182 303.735C244.196 298.379 304.782 283.078 365.796 274.662C426.667 266.246 487.822 264.716 548.693 272.826C609.707 281.088 670.293 298.838 731.307 307.101C792.178 315.211 853.333 313.681 914.204 305.571C975.218 297.308 1035.8 282.619 1096.82 283.078C1157.69 283.537 1218.84 299.45 1249.42 307.254L1280 315.211V368.766H1249.42C1218.84 368.766 1157.69 368.766 1096.82 368.766C1035.8 368.766 975.218 368.766 914.204 368.766C853.333 368.766 792.178 368.766 731.307 368.766C670.293 368.766 609.707 368.766 548.693 368.766C487.822 368.766 426.667 368.766 365.796 368.766C304.782 368.766 244.196 368.766 183.182 368.766C122.311 368.766 61.1556 368.766 30.5778 368.766H0V299.909Z" fill="#0E394C"/>
</svg>
