<svg width="165" height="37" viewBox="0 0 165 37" fill="none" xmlns="http://www.w3.org/2000/svg">
<path d="M19.148 0H12.7653V10.9143C12.7384 12.8869 11.32 14.4762 9.57438 14.4762H0V21.7143H6.9302C8.62297 21.7143 10.2465 20.9517 11.4434 19.5943L17.2786 12.9771C18.4755 11.6198 19.148 9.77867 19.148 7.85902V0Z" fill="url(#paint0_linear_14_44)"/>
<path d="M12.7653 36.1905H19.148V25.2762C19.1749 23.3036 20.5932 21.7143 22.3389 21.7143H31.9133V14.4762H24.9831C23.2903 14.4762 21.6668 15.2388 20.4699 16.5961L14.6347 23.2134C13.4378 24.5707 12.7653 26.4118 12.7653 28.3314V36.1905Z" fill="url(#paint1_linear_14_44)"/>
<path d="M50.6849 29.5947C49.52 29.5947 48.4722 29.3686 47.5414 28.9162C46.6053 28.4638 45.866 27.8124 45.3234 26.9619C44.7809 26.1114 44.5017 25.1071 44.4857 23.949H48.076C48.1238 24.7271 48.3685 25.3424 48.81 25.7947C49.2461 26.2471 49.8471 26.4733 50.6131 26.4733C51.3949 26.4733 52.0093 26.2592 52.4561 25.8309C52.9028 25.4087 53.1262 24.8538 53.1262 24.1662C53.1262 23.6052 52.9747 23.1438 52.6715 22.7819C52.3683 22.42 51.9907 22.1335 51.5386 21.9224C51.0811 21.7173 50.4535 21.4881 49.6557 21.2347C48.5706 20.8728 47.6903 20.517 47.0148 20.1671C46.334 19.8113 45.749 19.2774 45.2596 18.5657C44.7756 17.8479 44.5336 16.8919 44.5336 15.6976C44.5336 14.5757 44.7809 13.5986 45.2756 12.7662C45.7702 11.9338 46.4643 11.2974 47.3579 10.8571C48.2515 10.4108 49.2727 10.1876 50.4216 10.1876C52.1449 10.1876 53.5438 10.6641 54.6182 11.6171C55.6979 12.5641 56.2936 13.8881 56.4053 15.589H52.7193C52.6874 14.9376 52.4428 14.4008 51.9853 13.9786C51.5332 13.5503 50.9322 13.3362 50.1822 13.3362C49.528 13.3362 49.0068 13.5262 48.6185 13.9062C48.2249 14.2862 48.0281 14.8381 48.0281 15.5619C48.0281 16.0686 48.1744 16.4908 48.4669 16.8286C48.7648 17.1603 49.1318 17.4317 49.5679 17.6428C50.0094 17.8479 50.629 18.0862 51.4269 18.3576C52.5119 18.7195 53.3975 19.0814 54.0836 19.4433C54.7698 19.8052 55.3602 20.3481 55.8548 21.0719C56.3495 21.7957 56.5968 22.7457 56.5968 23.9219C56.5968 24.9352 56.3654 25.8762 55.9027 26.7447C55.4399 27.6133 54.7618 28.307 53.8682 28.8257C52.9747 29.3384 51.9135 29.5947 50.6849 29.5947ZM58.6313 21.8319C58.6313 20.3119 58.8999 18.9638 59.4371 17.7876C59.969 16.6114 60.6923 15.7067 61.6072 15.0733C62.5274 14.44 63.5539 14.1233 64.6868 14.1233C65.6761 14.1233 66.5405 14.3495 67.2798 14.8019C68.0244 15.2543 68.6201 15.8243 69.0669 16.5119V14.3676H72.4417V29.4047H69.0669V27.2062C68.6361 27.9119 68.0404 28.494 67.2798 28.9524C66.5245 29.4168 65.6522 29.649 64.6629 29.649C63.5459 29.649 62.5274 29.3233 61.6072 28.6719C60.6923 28.0205 59.969 27.1006 59.4371 25.9124C58.8999 24.7301 58.6313 23.37 58.6313 21.8319ZM69.0669 21.8862C69.0669 20.9633 68.9074 20.1732 68.5882 19.5157C68.2691 18.8522 67.8383 18.3425 67.2957 17.9867C66.7532 17.6368 66.1708 17.4619 65.5485 17.4619C64.9262 17.4619 64.3517 17.6338 63.8252 17.9776C63.2986 18.3214 62.8704 18.8251 62.5407 19.4886C62.2162 20.146 62.054 20.9271 62.054 21.8319C62.054 22.7366 62.2162 23.5268 62.5407 24.2024C62.8704 24.884 63.3039 25.4057 63.8411 25.7676C64.373 26.1295 64.9421 26.3105 65.5485 26.3105C66.1708 26.3105 66.7532 26.1355 67.2957 25.7857C67.8383 25.4298 68.2691 24.9232 68.5882 24.2657C68.9074 23.6022 69.0669 22.809 69.0669 21.8862ZM84.864 14.3676H88.2388V29.4047H84.864V27.5047C84.4332 28.1562 83.8694 28.6659 83.1726 29.0338C82.4811 29.4078 81.7285 29.5947 80.9147 29.5947C79.8775 29.5947 78.96 29.3474 78.1622 28.8528C77.3644 28.3522 76.7367 27.6163 76.2793 26.6452C75.8272 25.6801 75.6012 24.5281 75.6012 23.189V14.3676H78.9521V22.6462C78.9521 23.8405 79.2153 24.7573 79.7419 25.3967C80.2685 26.042 80.9865 26.3647 81.8961 26.3647C82.8215 26.3647 83.5476 26.042 84.0741 25.3967C84.6007 24.7573 84.864 23.8405 84.864 22.6462V14.3676ZM84.6007 7.36475V10.459L79.0957 13.309V10.5947L84.6007 7.36475ZM90.6802 21.8319C90.6802 20.3119 90.9488 18.9638 91.486 17.7876C92.0179 16.6114 92.7466 15.7067 93.6721 15.0733C94.5975 14.44 95.6268 14.1233 96.7597 14.1233C97.6213 14.1233 98.4431 14.3374 99.225 14.7657C100.007 15.1879 100.629 15.7519 101.092 16.4576V9.31903H104.491V29.4047H101.092V27.179C100.677 27.9209 100.095 28.5181 99.3446 28.9705C98.5947 29.4228 97.725 29.649 96.7357 29.649C95.6188 29.649 94.5975 29.3233 93.6721 28.6719C92.7466 28.0205 92.0179 27.1006 91.486 25.9124C90.9488 24.7301 90.6802 23.37 90.6802 21.8319ZM101.116 21.8862C101.116 20.9633 100.956 20.1732 100.637 19.5157C100.318 18.8522 99.8872 18.3425 99.3446 17.9867C98.8021 17.6368 98.2197 17.4619 97.5974 17.4619C96.9751 17.4619 96.4006 17.6338 95.8741 17.9776C95.3475 18.3214 94.9193 18.8251 94.5896 19.4886C94.2651 20.146 94.1029 20.9271 94.1029 21.8319C94.1029 22.7366 94.2651 23.5268 94.5896 24.2024C94.9193 24.884 95.3502 25.4057 95.882 25.7676C96.4193 26.1295 96.991 26.3105 97.5974 26.3105C98.2197 26.3105 98.8021 26.1355 99.3446 25.7857C99.8872 25.4298 100.318 24.9232 100.637 24.2657C100.956 23.6022 101.116 22.809 101.116 21.8862ZM120.096 21.5605C120.096 22.1033 120.064 22.5919 120.001 23.0262H110.307C110.387 24.1119 110.722 24.9624 111.312 25.5776C111.903 26.1928 112.629 26.5005 113.49 26.5005C114.735 26.5005 115.62 25.8943 116.147 24.6819H119.761C119.378 26.1295 118.644 27.3208 117.559 28.2557C116.474 29.1846 115.142 29.649 113.562 29.649C112.285 29.649 111.142 29.3263 110.131 28.6809C109.115 28.0416 108.326 27.1338 107.762 25.9576C107.193 24.7814 106.908 23.4243 106.908 21.8862C106.908 20.33 107.187 18.9638 107.746 17.7876C108.304 16.6114 109.086 15.7067 110.091 15.0733C111.097 14.44 112.254 14.1233 113.562 14.1233C114.823 14.1233 115.953 14.4309 116.953 15.0462C117.947 15.6614 118.721 16.536 119.274 17.67C119.822 18.7979 120.096 20.0947 120.096 21.5605ZM110.331 20.4747H116.626C116.61 19.4976 116.299 18.7165 115.692 18.1314C115.086 17.5403 114.344 17.2447 113.466 17.2447C112.637 17.2447 111.937 17.5313 111.368 18.1043C110.804 18.6713 110.458 19.4614 110.331 20.4747ZM142.667 10.459H146.449V29.4047H143.098V17.0819L138.622 29.4047H136.085L131.585 17.0819V29.4047H128.234V10.459H132.04L137.353 24.5462L142.667 10.459ZM161.097 29.4047L159.996 25.7947H153.342L152.241 29.4047H148.722L154.73 10.4319H158.632L164.639 29.4047H161.097ZM154.251 22.7547H159.086L156.669 14.829L154.251 22.7547Z" fill="#F5F3F5"/>
<defs>
<linearGradient id="paint0_linear_14_44" x1="15.9566" y1="-0.902134" x2="15.9566" y2="30.5747" gradientUnits="userSpaceOnUse">
<stop offset="0.307692" stop-color="#1EA659"/>
<stop offset="0.826923" stop-color="#88F2B6"/>
</linearGradient>
<linearGradient id="paint1_linear_14_44" x1="15.9566" y1="-0.902128" x2="15.9566" y2="30.5747" gradientUnits="userSpaceOnUse">
<stop offset="0.346154" stop-color="#1EA659"/>
<stop offset="0.807692" stop-color="#88F2B6"/>
</linearGradient>
</defs>
</svg>
