<svg width="184" height="38" viewBox="0 0 184 38" fill="none" xmlns="http://www.w3.org/2000/svg">
<g clip-path="url(#clip0_5_21)">
<path d="M19.5415 0.904762H12.361V11.8191C12.3307 13.7916 10.735 15.381 8.77118 15.381H-2V22.619H5.79647C7.70084 22.619 9.52729 21.8564 10.8738 20.4991L17.4384 13.8819C18.7849 12.5245 19.5415 10.6834 19.5415 8.76379V0.904762Z" fill="url(#paint0_linear_5_21)"/>
<path d="M12.361 37.0952H19.5415V26.1809C19.5717 24.2084 21.1674 22.619 23.1313 22.619H33.9024V15.381H26.106C24.2016 15.381 22.3752 16.1436 21.0286 17.5009L14.4641 24.1181C13.1175 25.4755 12.361 27.3166 12.361 29.2362V37.0952Z" fill="url(#paint1_linear_5_21)"/>
<path d="M55.0205 30.4995C53.71 30.4995 52.5312 30.2733 51.4841 29.821C50.431 29.3686 49.5992 28.7171 48.9889 27.8667C48.3785 27.0162 48.0644 26.0119 48.0464 24.8538H52.0855C52.1393 25.6319 52.4146 26.2471 52.9112 26.6995C53.4019 27.1519 54.078 27.3781 54.9397 27.3781C55.8193 27.3781 56.5104 27.164 57.0131 26.7357C57.5157 26.3135 57.767 25.7586 57.767 25.071C57.767 24.51 57.5965 24.0486 57.2554 23.6867C56.9143 23.3248 56.4895 23.0383 55.9809 22.8271C55.4663 22.6221 54.7602 22.3929 53.8626 22.1395C52.6419 21.7776 51.6516 21.4217 50.8917 21.0719C50.1258 20.716 49.4676 20.1822 48.9171 19.4705C48.3726 18.7527 48.1003 17.7967 48.1003 16.6024C48.1003 15.4805 48.3785 14.5033 48.935 13.671C49.4915 12.8386 50.2724 12.2022 51.2777 11.7619C52.2829 11.3156 53.4318 11.0924 54.7243 11.0924C56.663 11.0924 58.2367 11.5689 59.4455 12.5219C60.6602 13.4689 61.3303 14.7929 61.456 16.4938H57.3093C57.2734 15.8424 56.9981 15.3056 56.4835 14.8833C55.9749 14.4551 55.2987 14.241 54.455 14.241C53.719 14.241 53.1326 14.431 52.6958 14.811C52.253 15.191 52.0316 15.7429 52.0316 16.4667C52.0316 16.9733 52.1962 17.3956 52.5253 17.7333C52.8604 18.0651 53.2732 18.3365 53.7639 18.5476C54.2606 18.7527 54.9577 18.991 55.8552 19.2624C57.0759 19.6243 58.0722 19.9862 58.8441 20.3481C59.616 20.71 60.2802 21.2529 60.8367 21.9767C61.3932 22.7005 61.6714 23.6505 61.6714 24.8267C61.6714 25.84 61.4111 26.781 60.8905 27.6495C60.3699 28.5181 59.607 29.2117 58.6018 29.7305C57.5965 30.2432 56.4027 30.4995 55.0205 30.4995ZM63.9602 22.7367C63.9602 21.2167 64.2624 19.8686 64.8667 18.6924C65.4651 17.5162 66.2789 16.6114 67.3081 15.9781C68.3433 15.3448 69.4981 15.0281 70.7727 15.0281C71.8857 15.0281 72.858 15.2543 73.6898 15.7067C74.5275 16.159 75.1977 16.729 75.7003 17.4167V15.2724H79.497V30.3095H75.7003V28.111C75.2156 28.8167 74.5454 29.3987 73.6898 29.8571C72.8401 30.3216 71.8587 30.5538 70.7458 30.5538C69.4892 30.5538 68.3433 30.2281 67.3081 29.5767C66.2789 28.9252 65.4651 28.0054 64.8667 26.8171C64.2624 25.6349 63.9602 24.2748 63.9602 22.7367ZM75.7003 22.791C75.7003 21.8681 75.5208 21.0779 75.1618 20.4205C74.8027 19.757 74.318 19.2473 73.7077 18.8914C73.0974 18.5416 72.4421 18.3667 71.742 18.3667C71.0419 18.3667 70.3957 18.5386 69.8033 18.8824C69.2109 19.2262 68.7292 19.7298 68.3582 20.3933C67.9932 21.0508 67.8107 21.8319 67.8107 22.7367C67.8107 23.6414 67.9932 24.4316 68.3582 25.1071C68.7292 25.7887 69.2169 26.3105 69.8213 26.6724C70.4196 27.0343 71.0599 27.2152 71.742 27.2152C72.4421 27.2152 73.0974 27.0403 73.7077 26.6905C74.318 26.3346 74.8027 25.8279 75.1618 25.1705C75.5208 24.507 75.7003 23.7138 75.7003 22.791ZM93.472 15.2724H97.2687V30.3095H93.472V28.4095C92.9873 29.061 92.353 29.5706 91.5692 29.9386C90.7913 30.3125 89.9446 30.4995 89.0291 30.4995C87.8622 30.4995 86.83 30.2522 85.9325 29.7576C85.0349 29.257 84.3288 28.5211 83.8142 27.55C83.3056 26.5849 83.0513 25.4329 83.0513 24.0938V15.2724H86.8211V23.551C86.8211 24.7452 87.1173 25.6621 87.7097 26.3014C88.302 26.9468 89.1098 27.2695 90.1331 27.2695C91.1742 27.2695 91.991 26.9468 92.5834 26.3014C93.1758 25.6621 93.472 24.7452 93.472 23.551V15.2724ZM93.1758 8.26952V11.3638L86.9826 14.2138V11.4995L93.1758 8.26952ZM100.015 22.7367C100.015 21.2167 100.317 19.8686 100.922 18.6924C101.52 17.5162 102.34 16.6114 103.381 15.9781C104.422 15.3448 105.58 15.0281 106.855 15.0281C107.824 15.0281 108.748 15.2422 109.628 15.6705C110.508 16.0927 111.208 16.6567 111.728 17.3624V10.2238H115.552V30.3095H111.728V28.0838C111.262 28.8257 110.606 29.4229 109.763 29.8752C108.919 30.3276 107.941 30.5538 106.828 30.5538C105.571 30.5538 104.422 30.2281 103.381 29.5767C102.34 28.9252 101.52 28.0054 100.922 26.8171C100.317 25.6349 100.015 24.2748 100.015 22.7367ZM111.755 22.791C111.755 21.8681 111.576 21.0779 111.217 20.4205C110.858 19.757 110.373 19.2473 109.763 18.8914C109.152 18.5416 108.497 18.3667 107.797 18.3667C107.097 18.3667 106.451 18.5386 105.858 18.8824C105.266 19.2262 104.784 19.7298 104.413 20.3933C104.048 21.0508 103.866 21.8319 103.866 22.7367C103.866 23.6414 104.048 24.4316 104.413 25.1071C104.784 25.7887 105.269 26.3105 105.867 26.6724C106.472 27.0343 107.115 27.2152 107.797 27.2152C108.497 27.2152 109.152 27.0403 109.763 26.6905C110.373 26.3346 110.858 25.8279 111.217 25.1705C111.576 24.507 111.755 23.7138 111.755 22.791ZM133.108 22.4652C133.108 23.0081 133.072 23.4967 133.001 23.931H122.095C122.185 25.0167 122.562 25.8671 123.226 26.4824C123.89 27.0976 124.707 27.4052 125.676 27.4052C127.077 27.4052 128.073 26.799 128.665 25.5867H132.731C132.3 27.0343 131.475 28.2256 130.254 29.1605C129.033 30.0894 127.534 30.5538 125.757 30.5538C124.321 30.5538 123.035 30.2311 121.898 29.5857C120.755 28.9464 119.866 28.0386 119.232 26.8624C118.592 25.6862 118.272 24.329 118.272 22.791C118.272 21.2348 118.586 19.8686 119.214 18.6924C119.842 17.5162 120.722 16.6114 121.853 15.9781C122.984 15.3448 124.285 15.0281 125.757 15.0281C127.175 15.0281 128.447 15.3357 129.572 15.951C130.691 16.5662 131.561 17.4408 132.184 18.5748C132.8 19.7027 133.108 20.9995 133.108 22.4652ZM122.122 21.3795H129.204C129.186 20.4024 128.836 19.6213 128.154 19.0362C127.472 18.4451 126.637 18.1495 125.65 18.1495C124.716 18.1495 123.929 18.436 123.289 19.009C122.655 19.576 122.266 20.3662 122.122 21.3795ZM158.5 11.3638H162.755V30.3095H158.985V17.9867L153.95 30.3095H151.095L146.033 17.9867V30.3095H142.263V11.3638H146.545L152.523 25.451L158.5 11.3638ZM179.234 30.3095L177.995 26.6995H170.51L169.271 30.3095H165.313L172.071 11.3367H176.46L183.219 30.3095H179.234ZM171.533 23.6595H176.972L174.252 15.7338L171.533 23.6595Z" fill="#247BA0"/>
</g>
<defs>
<linearGradient id="paint0_linear_5_21" x1="15.9512" y1="0.00262779" x2="15.9512" y2="31.4795" gradientUnits="userSpaceOnUse">
<stop offset="0.307692" stop-color="#1EA659"/>
<stop offset="0.826923" stop-color="#88F2B6"/>
</linearGradient>
<linearGradient id="paint1_linear_5_21" x1="15.9512" y1="0.00262623" x2="15.9512" y2="31.4795" gradientUnits="userSpaceOnUse">
<stop offset="0.346154" stop-color="#1EA659"/>
<stop offset="0.807692" stop-color="#88F2B6"/>
</linearGradient>
<clipPath id="clip0_5_21">
<rect width="184" height="38" fill="white"/>
</clipPath>
</defs>
</svg>
